<svg viewBox="0 0 500 500" xmlns="http://www.w3.org/2000/svg" xmlns:xlink="http://www.w3.org/1999/xlink" width="100%" id="blobSvg">
  <path id="blob" d="M467,284.5Q461,319,455,356.5Q449,394,411,406.5Q373,419,350,452.5Q327,486,288.5,484Q250,482,224.5,444.5Q199,407,176,395.5Q153,384,139.5,362Q126,340,72.5,332.5Q19,325,30.5,287.5Q42,250,68.5,225Q95,200,87.5,163Q80,126,108.5,110.5Q137,95,157.5,62Q178,29,214,27Q250,25,273.5,66Q297,107,337,91.5Q377,76,374.5,118.5Q372,161,386.5,181Q401,201,437,225.5Q473,250,467,284.5Z" fill="#fafafa"></path>
</svg>